<?xml version="1.0" encoding="UTF-8"?>
<svg xmlns="http://www.w3.org/2000/svg" viewBox="0 0 1400 1100" width="1400" height="1100">
  <defs>
    <!-- Gradients -->
    <linearGradient id="frontendGrad" x1="0%" y1="0%" x2="100%" y2="100%">
      <stop offset="0%" style="stop-color:#1e3a5f;stop-opacity:1" />
      <stop offset="100%" style="stop-color:#0d1b2a;stop-opacity:1" />
    </linearGradient>
    <linearGradient id="web3Grad" x1="0%" y1="0%" x2="100%" y2="100%">
      <stop offset="0%" style="stop-color:#4a1d96;stop-opacity:1" />
      <stop offset="100%" style="stop-color:#2e1065;stop-opacity:1" />
    </linearGradient>
    <linearGradient id="blockchainGrad" x1="0%" y1="0%" x2="100%" y2="100%">
      <stop offset="0%" style="stop-color:#047857;stop-opacity:1" />
      <stop offset="100%" style="stop-color:#064e3b;stop-opacity:1" />
    </linearGradient>
    <linearGradient id="externalGrad" x1="0%" y1="0%" x2="100%" y2="100%">
      <stop offset="0%" style="stop-color:#b45309;stop-opacity:1" />
      <stop offset="100%" style="stop-color:#78350f;stop-opacity:1" />
    </linearGradient>
    <linearGradient id="dataFlowGrad" x1="0%" y1="0%" x2="100%" y2="0%">
      <stop offset="0%" style="stop-color:#3b82f6;stop-opacity:1" />
      <stop offset="100%" style="stop-color:#06b6d4;stop-opacity:1" />
    </linearGradient>
    
    <!-- Arrow markers -->
    <marker id="arrowBlue" markerWidth="10" markerHeight="10" refX="9" refY="3" orient="auto" markerUnits="strokeWidth">
      <path d="M0,0 L0,6 L9,3 z" fill="#3b82f6" />
    </marker>
    <marker id="arrowCyan" markerWidth="10" markerHeight="10" refX="9" refY="3" orient="auto" markerUnits="strokeWidth">
      <path d="M0,0 L0,6 L9,3 z" fill="#06b6d4" />
    </marker>
    <marker id="arrowGreen" markerWidth="10" markerHeight="10" refX="9" refY="3" orient="auto" markerUnits="strokeWidth">
      <path d="M0,0 L0,6 L9,3 z" fill="#10b981" />
    </marker>
    <marker id="arrowOrange" markerWidth="10" markerHeight="10" refX="9" refY="3" orient="auto" markerUnits="strokeWidth">
      <path d="M0,0 L0,6 L9,3 z" fill="#f59e0b" />
    </marker>
    <marker id="arrowPurple" markerWidth="10" markerHeight="10" refX="9" refY="3" orient="auto" markerUnits="strokeWidth">
      <path d="M0,0 L0,6 L9,3 z" fill="#8b5cf6" />
    </marker>
    
    <!-- Shadow filter -->
    <filter id="shadow" x="-20%" y="-20%" width="140%" height="140%">
      <feDropShadow dx="2" dy="4" stdDeviation="4" flood-opacity="0.3"/>
    </filter>
  </defs>
  
  <!-- Background -->
  <rect width="1400" height="1100" fill="#f8fafc"/>
  
  <!-- Title -->
  <text x="700" y="45" font-family="Arial, sans-serif" font-size="28" font-weight="bold" fill="#1e293b" text-anchor="middle">Doefin - Conditional Token Prediction Market</text>
  <text x="700" y="70" font-family="Arial, sans-serif" font-size="14" fill="#64748b" text-anchor="middle">Visual Architecture Diagram | Base Sepolia Testnet</text>
  
  <!-- ==================== FRONTEND LAYER ==================== -->
  <g transform="translate(20, 100)">
    <!-- Layer header -->
    <rect x="0" y="0" width="420" height="35" rx="5" fill="url(#frontendGrad)"/>
    <text x="210" y="23" font-family="Arial, sans-serif" font-size="14" font-weight="bold" fill="white" text-anchor="middle">FRONTEND LAYER (React 18 + Vite)</text>
    
    <!-- App Structure Box -->
    <rect x="10" y="50" width="400" height="120" rx="8" fill="white" stroke="#334155" stroke-width="2" filter="url(#shadow)"/>
    <text x="210" y="70" font-family="Arial, sans-serif" font-size="13" font-weight="bold" fill="#1e293b" text-anchor="middle">Application Structure</text>
    
    <!-- App flow diagram -->
    <rect x="30" y="85" width="70" height="35" rx="4" fill="#e0f2fe" stroke="#0284c7" stroke-width="1.5"/>
    <text x="65" y="107" font-family="monospace" font-size="9" fill="#0369a1" text-anchor="middle">main.tsx</text>
    
    <line x1="100" y1="102" x2="120" y2="102" stroke="#64748b" stroke-width="1.5" marker-end="url(#arrowBlue)"/>
    
    <rect x="120" y="85" width="70" height="35" rx="4" fill="#dbeafe" stroke="#2563eb" stroke-width="1.5"/>
    <text x="155" y="107" font-family="monospace" font-size="9" fill="#1d4ed8" text-anchor="middle">App.tsx</text>
    
    <line x1="190" y1="102" x2="210" y2="102" stroke="#64748b" stroke-width="1.5" marker-end="url(#arrowBlue)"/>
    
    <rect x="210" y="85" width="70" height="35" rx="4" fill="#dbeafe" stroke="#2563eb" stroke-width="1.5"/>
    <text x="245" y="107" font-family="monospace" font-size="9" fill="#1d4ed8" text-anchor="middle">Root.tsx</text>
    
    <line x1="280" y1="102" x2="300" y2="102" stroke="#64748b" stroke-width="1.5" marker-end="url(#arrowBlue)"/>
    
    <rect x="300" y="85" width="70" height="35" rx="4" fill="#dbeafe" stroke="#2563eb" stroke-width="1.5"/>
    <text x="335" y="107" font-family="monospace" font-size="9" fill="#1d4ed8" text-anchor="middle">Routes</text>
    
    <!-- Context -->
    <rect x="150" y="140" width="120" height="22" rx="4" fill="#fef3c7" stroke="#d97706" stroke-width="1.5"/>
    <text x="210" y="155" font-family="Arial, sans-serif" font-size="10" font-weight="bold" fill="#92400e" text-anchor="middle">Web3Context</text>
    
    <!-- Components Box -->
    <rect x="10" y="180" width="400" height="200" rx="8" fill="white" stroke="#334155" stroke-width="2" filter="url(#shadow)"/>
    <text x="210" y="200" font-family="Arial, sans-serif" font-size="13" font-weight="bold" fill="#1e293b" text-anchor="middle">Core Components</text>
    
    <!-- Component items -->
    <rect x="25" y="215" width="85" height="28" rx="4" fill="#f0fdf4" stroke="#16a34a" stroke-width="1.5"/>
    <text x="67" y="233" font-family="Arial, sans-serif" font-size="9" fill="#166534" text-anchor="middle">WalletConnect</text>
    
    <rect x="120" y="215" width="85" height="28" rx="4" fill="#f0fdf4" stroke="#16a34a" stroke-width="1.5"/>
    <text x="162" y="233" font-family="Arial, sans-serif" font-size="9" fill="#166534" text-anchor="middle">Navigation</text>
    
    <rect x="215" y="215" width="85" height="28" rx="4" fill="#f0fdf4" stroke="#16a34a" stroke-width="1.5"/>
    <text x="257" y="233" font-family="Arial, sans-serif" font-size="9" fill="#166534" text-anchor="middle">Transaction</text>
    <text x="257" y="243" font-family="Arial, sans-serif" font-size="8" fill="#166534" text-anchor="middle">Overlay</text>
    
    <rect x="310" y="215" width="85" height="28" rx="4" fill="#f0fdf4" stroke="#16a34a" stroke-width="1.5"/>
    <text x="352" y="233" font-family="Arial, sans-serif" font-size="9" fill="#166534" text-anchor="middle">Network</text>
    <text x="352" y="243" font-family="Arial, sans-serif" font-size="8" fill="#166534" text-anchor="middle">Monitor</text>
    
    <rect x="25" y="255" width="85" height="28" rx="4" fill="#f0fdf4" stroke="#16a34a" stroke-width="1.5"/>
    <text x="67" y="273" font-family="Arial, sans-serif" font-size="9" fill="#166534" text-anchor="middle">GasEstimation</text>
    <text x="67" y="283" font-family="Arial, sans-serif" font-size="8" fill="#166534" text-anchor="middle">Modal</text>
    
    <rect x="120" y="255" width="85" height="28" rx="4" fill="#f0fdf4" stroke="#16a34a" stroke-width="1.5"/>
    <text x="162" y="273" font-family="Arial, sans-serif" font-size="9" fill="#166534" text-anchor="middle">Network</text>
    <text x="162" y="283" font-family="Arial, sans-serif" font-size="8" fill="#166534" text-anchor="middle">Notification</text>
    
    <rect x="215" y="255" width="85" height="28" rx="4" fill="#f0fdf4" stroke="#16a34a" stroke-width="1.5"/>
    <text x="257" y="273" font-family="Arial, sans-serif" font-size="9" fill="#166534" text-anchor="middle">Copyable</text>
    <text x="257" y="283" font-family="Arial, sans-serif" font-size="8" fill="#166534" text-anchor="middle">Hash</text>
    
    <rect x="310" y="255" width="85" height="28" rx="4" fill="#f0fdf4" stroke="#16a34a" stroke-width="1.5"/>
    <text x="352" y="273" font-family="Arial, sans-serif" font-size="9" fill="#166534" text-anchor="middle">Footer</text>
    
    <!-- Pages Box -->
    <rect x="10" y="395" width="400" height="130" rx="8" fill="white" stroke="#334155" stroke-width="2" filter="url(#shadow)"/>
    <text x="210" y="415" font-family="Arial, sans-serif" font-size="13" font-weight="bold" fill="#1e293b" text-anchor="middle">Pages / Routes</text>
    
    <rect x="25" y="430" width="70" height="25" rx="4" fill="#ede9fe" stroke="#7c3aed" stroke-width="1.5"/>
    <text x="60" y="448" font-family="Arial, sans-serif" font-size="9" fill="#6d28d9" text-anchor="middle">Home</text>
    
    <rect x="105" y="430" width="70" height="25" rx="4" fill="#ede9fe" stroke="#7c3aed" stroke-width="1.5"/>
    <text x="140" y="448" font-family="Arial, sans-serif" font-size="9" fill="#6d28d9" text-anchor="middle">Markets</text>
    
    <rect x="185" y="430" width="70" height="25" rx="4" fill="#ede9fe" stroke="#7c3aed" stroke-width="1.5"/>
    <text x="220" y="448" font-family="Arial, sans-serif" font-size="9" fill="#6d28d9" text-anchor="middle">Create</text>
    <text x="220" y="458" font-family="Arial, sans-serif" font-size="8" fill="#6d28d9" text-anchor="middle">Market</text>
    
    <rect x="265" y="430" width="70" height="25" rx="4" fill="#ede9fe" stroke="#7c3aed" stroke-width="1.5"/>
    <text x="300" y="448" font-family="Arial, sans-serif" font-size="9" fill="#6d28d9" text-anchor="middle">Create</text>
    <text x="300" y="458" font-family="Arial, sans-serif" font-size="8" fill="#6d28d9" text-anchor="middle">Condition</text>
    
    <rect x="345" y="430" width="50" height="25" rx="4" fill="#ede9fe" stroke="#7c3aed" stroke-width="1.5"/>
    <text x="370" y="448" font-family="Arial, sans-serif" font-size="9" fill="#6d28d9" text-anchor="middle">Arch</text>
    
    <rect x="25" y="465" width="70" height="25" rx="4" fill="#ede9fe" stroke="#7c3aed" stroke-width="1.5"/>
    <text x="60" y="483" font-family="Arial, sans-serif" font-size="9" fill="#6d28d9" text-anchor="middle">NotFound</text>
    
    <rect x="105" y="465" width="70" height="25" rx="4" fill="#ede9fe" stroke="#7c3aed" stroke-width="1.5"/>
    <text x="140" y="483" font-family="Arial, sans-serif" font-size="9" fill="#6d28d9" text-anchor="middle">UI Library</text>
    <text x="140" y="493" font-family="Arial, sans-serif" font-size="8" fill="#6d28d9" text-anchor="middle">(Radix)</text>
    
    <rect x="185" y="465" width="70" height="25" rx="4" fill="#ede9fe" stroke="#7c3aed" stroke-width="1.5"/>
    <text x="220" y="483" font-family="Arial, sans-serif" font-size="9" fill="#6d28d9" text-anchor="middle">Tailwind</text>
    <text x="220" y="493" font-family="Arial, sans-serif" font-size="8" fill="#6d28d9" text-anchor="middle">CSS</text>
    
    <rect x="265" y="465" width="70" height="25" rx="4" fill="#ede9fe" stroke="#7c3aed" stroke-width="1.5"/>
    <text x="300" y="483" font-family="Arial, sans-serif" font-size="9" fill="#6d28d9" text-anchor="middle">Styles</text>
    <text x="300" y="493" font-family="Arial, sans-serif" font-size="8" fill="#6d28d9" text-anchor="middle">(theme)</text>
    
    <!-- Tailwind CSS + Radix UI label -->
    <text x="370" y="495" font-family="Arial, sans-serif" font-size="9" fill="#64748b" text-anchor="middle">+ more</text>
  </g>
  
  <!-- ==================== WEB3 INTEGRATION LAYER ==================== -->
  <g transform="translate(480, 100)">
    <!-- Layer header -->
    <rect x="0" y="0" width="420" height="35" rx="5" fill="url(#web3Grad)"/>
    <text x="210" y="23" font-family="Arial, sans-serif" font-size="14" font-weight="bold" fill="white" text-anchor="middle">WEB3 INTEGRATION LAYER (wagmi + viem)</text>
    
    <!-- Providers Box -->
    <rect x="10" y="50" width="400" height="100" rx="8" fill="white" stroke="#334155" stroke-width="2" filter="url(#shadow)"/>
    <text x="210" y="70" font-family="Arial, sans-serif" font-size="13" font-weight="bold" fill="#1e293b" text-anchor="middle">Provider Hierarchy</text>
    
    <!-- Provider chain -->
    <rect x="30" y="85" width="100" height="35" rx="4" fill="#f3e8ff" stroke="#9333ea" stroke-width="1.5"/>
    <text x="80" y="107" font-family="monospace" font-size="9" fill="#7e22ce" text-anchor="middle">WagmiProvider</text>
    
    <line x1="130" y1="102" x2="145" y2="102" stroke="#64748b" stroke-width="1.5" marker-end="url(#arrowPurple)"/>
    
    <rect x="145" y="85" width="100" height="35" rx="4" fill="#f3e8ff" stroke="#9333ea" stroke-width="1.5"/>
    <text x="195" y="107" font-family="monospace" font-size="9" fill="#7e22ce" text-anchor="middle">QueryClient</text>
    
    <line x1="245" y1="102" x2="260" y2="102" stroke="#64748b" stroke-width="1.5" marker-end="url(#arrowPurple)"/>
    
    <rect x="260" y="85" width="100" height="35" rx="4" fill="#f3e8ff" stroke="#9333ea" stroke-width="1.5"/>
    <text x="310" y="107" font-family="monospace" font-size="9" fill="#7e22ce" text-anchor="middle">RainbowKit</text>
    
    <rect x="120" y="130" width="180" height="22" rx="4" fill="#fae8ff" stroke="#c026d3" stroke-width="1.5"/>
    <text x="210" y="145" font-family="Arial, sans-serif" font-size="10" font-weight="bold" fill="#a21caf" text-anchor="middle">TanStack Query Integration</text>
    
    <!-- Custom Hooks Box -->
    <rect x="10" y="165" width="400" height="220" rx="8" fill="white" stroke="#334155" stroke-width="2" filter="url(#shadow)"/>
    <text x="210" y="185" font-family="Arial, sans-serif" font-size="13" font-weight="bold" fill="#1e293b" text-anchor="middle">Custom React Hooks</text>
    
    <!-- Hook items - row 1 -->
    <rect x="25" y="200" width="90" height="35" rx="4" fill="#fef9c3" stroke="#eab308" stroke-width="1.5"/>
    <text x="70" y="213" font-family="monospace" font-size="8" fill="#a16207" text-anchor="middle">useSplit</text>
    <text x="70" y="225" font-family="monospace" font-size="8" fill="#a16207" text-anchor="middle">Position</text>
    
    <rect x="125" y="200" width="90" height="35" rx="4" fill="#fef9c3" stroke="#eab308" stroke-width="1.5"/>
    <text x="170" y="213" font-family="monospace" font-size="8" fill="#a16207" text-anchor="middle">useToken</text>
    <text x="170" y="225" font-family="monospace" font-size="8" fill="#a16207" text-anchor="middle">Approval</text>
    
    <rect x="225" y="200" width="90" height="35" rx="4" fill="#fef9c3" stroke="#eab308" stroke-width="1.5"/>
    <text x="270" y="213" font-family="monospace" font-size="8" fill="#a16207" text-anchor="middle">useGas</text>
    <text x="270" y="225" font-family="monospace" font-size="8" fill="#a16207" text-anchor="middle">Estimate</text>
    
    <rect x="325" y="200" width="70" height="35" rx="4" fill="#fef9c3" stroke="#eab308" stroke-width="1.5"/>
    <text x="360" y="213" font-family="monospace" font-size="8" fill="#a16207" text-anchor="middle">useContract</text>
    <text x="360" y="225" font-family="monospace" font-size="8" fill="#a16207" text-anchor="middle">Events</text>
    
    <!-- Hook items - row 2 -->
    <rect x="25" y="245" width="90" height="35" rx="4" fill="#fef9c3" stroke="#eab308" stroke-width="1.5"/>
    <text x="70" y="258" font-family="monospace" font-size="8" fill="#a16207" text-anchor="middle">useBitcoin</text>
    <text x="70" y="270" font-family="monospace" font-size="8" fill="#a16207" text-anchor="middle">BlockHeight</text>
    
    <rect x="125" y="245" width="90" height="35" rx="4" fill="#fef9c3" stroke="#eab308" stroke-width="1.5"/>
    <text x="170" y="258" font-family="monospace" font-size="8" fill="#a16207" text-anchor="middle">useBitcoin</text>
    <text x="170" y="270" font-family="monospace" font-size="8" fill="#a16207" text-anchor="middle">Difficulty</text>
    
    <rect x="225" y="245" width="90" height="35" rx="4" fill="#fef9c3" stroke="#eab308" stroke-width="1.5"/>
    <text x="270" y="258" font-family="monospace" font-size="8" fill="#a16207" text-anchor="middle">useRead</text>
    <text x="270" y="270" font-family="monospace" font-size="8" fill="#a16207" text-anchor="middle">Contract</text>
    
    <rect x="325" y="245" width="70" height="35" rx="4" fill="#fef9c3" stroke="#eab308" stroke-width="1.5"/>
    <text x="360" y="258" font-family="monospace" font-size="8" fill="#a16207" text-anchor="middle">useWrite</text>
    <text x="360" y="270" font-family="monospace" font-size="8" fill="#a16207" text-anchor="middle">Contract</text>
    
    <!-- Hook items - row 3 -->
    <rect x="25" y="290" width="90" height="35" rx="4" fill="#fef9c3" stroke="#eab308" stroke-width="1.5"/>
    <text x="70" y="303" font-family="monospace" font-size="8" fill="#a16207" text-anchor="middle">useWaitFor</text>
    <text x="70" y="315" font-family="monospace" font-size="8" fill="#a16207" text-anchor="middle">Transaction</text>
    
    <rect x="125" y="290" width="90" height="35" rx="4" fill="#fef9c3" stroke="#eab308" stroke-width="1.5"/>
    <text x="170" y="303" font-family="monospace" font-size="8" fill="#a16207" text-anchor="middle">useAccount</text>
    <text x="170" y="315" font-family="monospace" font-size="8" fill="#a16207" text-anchor="middle">(wagmi)</text>
    
    <rect x="225" y="290" width="90" height="35" rx="4" fill="#fef9c3" stroke="#eab308" stroke-width="1.5"/>
    <text x="270" y="303" font-family="monospace" font-size="8" fill="#a16207" text-anchor="middle">useNetwork</text>
    <text x="270" y="315" font-family="monospace" font-size="8" fill="#a16207" text-anchor="middle">(wagmi)</text>
    
    <rect x="325" y="290" width="70" height="35" rx="4" fill="#fef9c3" stroke="#eab308" stroke-width="1.5"/>
    <text x="360" y="303" font-family="monospace" font-size="8" fill="#a16207" text-anchor="middle">useSigner</text>
    <text x="360" y="315" font-family="monospace" font-size="8" fill="#a16207" text-anchor="middle">(viem)</text>
    
    <!-- Transaction States -->
    <rect x="10" y="400" width="400" height="80" rx="8" fill="white" stroke="#334155" stroke-width="2" filter="url(#shadow)"/>
    <text x="210" y="420" font-family="Arial, sans-serif" font-size="13" font-weight="bold" fill="#1e293b" text-anchor="middle">Transaction Lifecycle</text>
    
    <rect x="25" y="435" width="60" height="22" rx="4" fill="#e0f2fe" stroke="#0ea5e9" stroke-width="1.5"/>
    <text x="55" y="450" font-family="Arial, sans-serif" font-size="9" fill="#0369a1" text-anchor="middle">awaiting</text>
    
    <rect x="95" y="435" width="60" height="22" rx="4" fill="#fef3c7" stroke="#d97706" stroke-width="1.5"/>
    <text x="125" y="450" font-family="Arial, sans-serif" font-size="9" fill="#92400e" text-anchor="middle">pending</text>
    
    <rect x="165" y="435" width="75" height="22" rx="4" fill="#fef9c3" stroke="#eab308" stroke-width="1.5"/>
    <text x="202" y="450" font-family="Arial, sans-serif" font-size="9" fill="#a16207" text-anchor="middle">broadcasting</text>
    
    <rect x="250" y="435" width="70" height="22" rx="4" fill="#fce7f3" stroke="#db2777" stroke-width="1.5"/>
    <text x="285" y="450" font-family="Arial, sans-serif" font-size="9" fill="#be185d" text-anchor="middle">confirming</text>
    
    <rect x="330" y="435" width="65" height="22" rx="4" fill="#dcfce7" stroke="#16a34a" stroke-width="1.5"/>
    <text x="362" y="450" font-family="Arial, sans-serif" font-size="9" fill="#166534" text-anchor="middle">confirmed</text>
    
    <!-- Failed state -->
    <rect x="295" y="463" width="50" height="22" rx="4" fill="#fee2e2" stroke="#dc2626" stroke-width="1.5"/>
    <text x="320" y="478" font-family="Arial, sans-serif" font-size="9" fill="#b91c1c" text-anchor="middle">failed</text>
  </g>
  
  <!-- ==================== BLOCKCHAIN LAYER ==================== -->
  <g transform="translate(940, 100)">
    <!-- Layer header -->
    <rect x="0" y="0" width="420" height="35" rx="5" fill="url(#blockchainGrad)"/>
    <text x="210" y="23" font-family="Arial, sans-serif" font-size="14" font-weight="bold" fill="white" text-anchor="middle">BLOCKCHAIN LAYER (Base Sepolia)</text>
    
    <!-- Network Box -->
    <rect x="10" y="50" width="400" height="60" rx="8" fill="white" stroke="#334155" stroke-width="2" filter="url(#shadow)"/>
    <text x="210" y="70" font-family="Arial, sans-serif" font-size="13" font-weight="bold" fill="#1e293b" text-anchor="middle">Base Sepolia Testnet</text>
    <text x="210" y="88" font-family="monospace" font-size="9" fill="#64748b" text-anchor="middle">Chain ID: 84532 | RPC: https://sepolia.base.org</text>
    
    <!-- Diamond Proxy -->
    <rect x="10" y="125" width="400" height="110" rx="8" fill="white" stroke="#334155" stroke-width="2" filter="url(#shadow)"/>
    <text x="210" y="145" font-family="Arial, sans-serif" font-size="13" font-weight="bold" fill="#1e293b" text-anchor="middle">Diamond Proxy Contract</text>
    
    <rect x="30" y="160" width="170" height="35" rx="4" fill="#dcfce7" stroke="#16a34a" stroke-width="1.5"/>
    <text x="115" y="175" font-family="monospace" font-size="8" fill="#166534" text-anchor="middle">DiamondProxy</text>
    <text x="115" y="187" font-family="monospace" font-size="7" fill="#166534" text-anchor="middle">0x75ed...E225</text>
    
    <rect x="210" y="160" width="170" height="35" rx="4" fill="#dcfce7" stroke="#16a34a" stroke-width="1.5"/>
    <text x="295" y="175" font-family="monospace" font-size="8" fill="#166534" text-anchor="middle">Facet: Position</text>
    <text x="295" y="187" font-family="monospace" font-size="7" fill="#166534" text-anchor="middle">splitPosition()</text>
    
    <rect x="30" y="205" width="170" height="22" rx="4" fill="#dcfce7" stroke="#16a34a" stroke-width="1.5"/>
    <text x="115" y="220" font-family="monospace" font-size="8" fill="#166534" text-anchor="middle">Facet: Condition</text>
    
    <rect x="210" y="205" width="170" height="22" rx="4" fill="#dcfce7" stroke="#16a34a" stroke-width="1.5"/>
    <text x="295" y="220" font-family="monospace" font-size="8" fill="#166534" text-anchor="middle">Facet: Market</text>
    
    <!-- Conditional Tokens -->
    <rect x="10" y="250" width="400" height="80" rx="8" fill="white" stroke="#334155" stroke-width="2" filter="url(#shadow)"/>
    <text x="210" y="270" font-family="Arial, sans-serif" font-size="13" font-weight="bold" fill="#1e293b" text-anchor="middle">Conditional Tokens Contract</text>
    
    <rect x="30" y="285" width="180" height="35" rx="4" fill="#fef9c3" stroke="#eab308" stroke-width="1.5"/>
    <text x="120" y="300" font-family="monospace" font-size="8" fill="#a16207" text-anchor="middle">ConditionalTokens</text>
    <text x="120" y="312" font-family="monospace" font-size="7" fill="#a16207" text-anchor="middle">0x3F84...42c9</text>
    
    <rect x="220" y="285" width="170" height="35" rx="4" fill="#fef9c3" stroke="#eab308" stroke-width="1.5"/>
    <text x="305" y="300" font-family="Arial, sans-serif" font-size="9" fill="#a16207" text-anchor="middle">ERC1155</text>
    <text x="305" y="312" font-family="Arial, sans-serif" font-size="8" fill="#a16207" text-anchor="middle">mint / burn / transfer</text>
    
    <!-- ERC20 Tokens -->
    <rect x="10" y="345" width="400" height="100" rx="8" fill="white" stroke="#334155" stroke-width="2" filter="url(#shadow)"/>
    <text x="210" y="365" font-family="Arial, sans-serif" font-size="13" font-weight="bold" fill="#1e293b" text-anchor="middle">ERC20 Collateral Tokens</text>
    
    <rect x="30" y="380" width="90" height="35" rx="4" fill="#fce7f3" stroke="#db2777" stroke-width="1.5"/>
    <text x="75" y="395" font-family="Arial, sans-serif" font-size="10" fill="#be185d" text-anchor="middle">mBTC</text>
    <text x="75" y="407" font-family="monospace" font-size="7" fill="#be185d" text-anchor="middle">mock BTC</text>
    
    <rect x="130" y="380" width="90" height="35" rx="4" fill="#fce7f3" stroke="#db2777" stroke-width="1.5"/>
    <text x="175" y="395" font-family="Arial, sans-serif" font-size="10" fill="#be185d" text-anchor="middle">mUSDC</text>
    <text x="175" y="407" font-family="monospace" font-size="7" fill="#be185d" text-anchor="middle">mock USDC</text>
    
    <rect x="230" y="380" width="90" height="35" rx="4" fill="#fce7f3" stroke="#db2777" stroke-width="1.5"/>
    <text x="275" y="395" font-family="Arial, sans-serif" font-size="10" fill="#be185d" text-anchor="middle">WBTC</text>
    <text x="275" y="407" font-family="monospace" font-size="7" fill="#be185d" text-anchor="middle">wrapped BTC</text>
    
    <rect x="330" y="380" width="70" height="35" rx="4" fill="#fce7f3" stroke="#db2777" stroke-width="1.5"/>
    <text x="365" y="395" font-family="Arial, sans-serif" font-size="10" fill="#be185d" text-anchor="middle">WETH</text>
    <text x="365" y="407" font-family="monospace" font-size="7" fill="#be185d" text-anchor="middle">wrapped ETH</text>
    
    <!-- Data Storage -->
    <rect x="10" y="460" width="400" height="50" rx="8" fill="white" stroke="#334155" stroke-width="2" filter="url(#shadow)"/>
    <text x="210" y="480" font-family="Arial, sans-serif" font-size="13" font-weight="bold" fill="#1e293b" text-anchor="middle">Client-Side Storage</text>
    <text x="210" y="498" font-family="Arial, sans-serif" font-size="10" fill="#64748b" text-anchor="middle">localStorage: conditions, markets, transaction history</text>
  </g>
  
  <!-- ==================== EXTERNAL SERVICES ==================== -->
  <g transform="translate(20, 680)">
    <!-- Layer header -->
    <rect x="0" y="0" width="1340" height="35" rx="5" fill="url(#externalGrad)"/>
    <text x="670" y="23" font-family="Arial, sans-serif" font-size="14" font-weight="bold" fill="white" text-anchor="middle">EXTERNAL SERVICES & DEPENDENCIES</text>
    
    <!-- IPFS / Filebase -->
    <rect x="10" y="50" width="280" height="120" rx="8" fill="white" stroke="#334155" stroke-width="2" filter="url(#shadow)"/>
    <text x="150" y="70" font-family="Arial, sans-serif" font-size="13" font-weight="bold" fill="#1e293b" text-anchor="middle">IPFS Storage (Filebase)</text>
    
    <rect x="30" y="85" width="100" height="35" rx="4" fill="#ffedd5" stroke="#ea580c" stroke-width="1.5"/>
    <text x="80" y="107" font-family="Arial, sans-serif" font-size="10" fill="#c2410c" text-anchor="middle">IPFS Gateway</text>
    
    <rect x="140" y="85" width="120" height="35" rx="4" fill="#ffedd5" stroke="#ea580c" stroke-width="1.5"/>
    <text x="200" y="107" font-family="monospace" font-size="9" fill="#c2410c" text-anchor="middle">w3s.link</text>
    
    <rect x="30" y="130" width="240" height="30" rx="4" fill="#ffedd5" stroke="#ea580c" stroke-width="1.5"/>
    <text x="150" y="150" font-family="Arial, sans-serif" font-size="9" fill="#c2410c" text-anchor="middle">Metadata: market conditions,</text>
    <text x="150" y="162" font-family="Arial, sans-serif" font-size="9" fill="#c2410c" text-anchor="middle">oracle reports, IPFS hashes</text>
    
    <!-- Bitcoin APIs -->
    <rect x="310" y="50" width="280" height="120" rx="8" fill="white" stroke="#334155" stroke-width="2" filter="url(#shadow)"/>
    <text x="450" y="70" font-family="Arial, sans-serif" font-size="13" font-weight="bold" fill="#1e293b" text-anchor="middle">Bitcoin Oracle APIs</text>
    
    <rect x="330" y="85" width="70" height="30" rx="4" fill="#e0e7ff" stroke="#4f46e5" stroke-width="1.5"/>
    <text x="365" y="104" font-family="Arial, sans-serif" font-size="9" fill="#3730a3" text-anchor="middle">block</text>
    <text x="365" y="114" font-family="Arial, sans-serif" font-size="8" fill="#3730a3" text-anchor="middle">stream</text>
    
    <rect x="410" y="85" width="70" height="30" rx="4" fill="#e0e7ff" stroke="#4f46e5" stroke-width="1.5"/>
    <text x="445" y="104" font-family="Arial, sans-serif" font-size="9" fill="#3730a3" text-anchor="middle">mempool</text>
    <text x="445" y="114" font-family="Arial, sans-serif" font-size="8" fill="#3730a3" text-anchor="middle">.space</text>
    
    <rect x="490" y="85" width="80" height="30" rx="4" fill="#e0e7ff" stroke="#4f46e5" stroke-width="1.5"/>
    <text x="530" y="104" font-family="Arial, sans-serif" font-size="9" fill="#3730a3" text-anchor="middle">blockchain</text>
    <text x="530" y="114" font-family="Arial, sans-serif" font-size="8" fill="#3730a3" text-anchor="middle">.info</text>
    
    <rect x="330" y="125" width="240" height="35" rx="4" fill="#e0e7ff" stroke="#4f46e5" stroke-width="1.5"/>
    <text x="450" y="140" font-family="Arial, sans-serif" font-size="9" fill="#3730a3" text-anchor="middle">Block height, difficulty,</text>
    <text x="450" y="152" font-family="Arial, sans-serif" font-size="9" fill="#3730a3" text-anchor="middle">hash rate, price feeds</text>
    
    <!-- Public RPCs -->
    <rect x="610" y="50" width="280" height="120" rx="8" fill="white" stroke="#334155" stroke-width="2" filter="url(#shadow)"/>
    <text x="750" y="70" font-family="Arial, sans-serif" font-size="13" font-weight="bold" fill="#1e293b" text-anchor="middle">Public RPC Endpoints</text>
    
    <rect x="630" y="85" width="240" height="35" rx="4" fill="#f1f5f9" stroke="#475569" stroke-width="1.5"/>
    <text x="750" y="107" font-family="monospace" font-size="10" fill="#334155" text-anchor="middle">https://sepolia.base.org</text>
    
    <rect x="630" y="130" width="240" height="30" rx="4" fill="#f1f5f9" stroke="#475569" stroke-width="1.5"/>
    <text x="750" y="150" font-family="Arial, sans-serif" font-size="9" fill="#334155" text-anchor="middle">Alchemy / Infura fallbacks</text>
    
    <!-- Config / Env -->
    <rect x="910" y="50" width="400" height="120" rx="8" fill="white" stroke="#334155" stroke-width="2" filter="url(#shadow)"/>
    <text x="1110" y="70" font-family="Arial, sans-serif" font-size="13" font-weight="bold" fill="#1e293b" text-anchor="middle">Configuration</text>
    
    <rect x="930" y="85" width="170" height="30" rx="4" fill="#f0fdf4" stroke="#16a34a" stroke-width="1.5"/>
    <text x="1015" y="104" font-family="Arial, sans-serif" font-size="10" fill="#166534" text-anchor="middle">wagmi.ts config</text>
    
    <rect x="1110" y="85" width="180" height="30" rx="4" fill="#f0fdf4" stroke="#16a34a" stroke-width="1.5"/>
    <text x="1200" y="104" font-family="Arial, sans-serif" font-size="10" fill="#166534" text-anchor="middle">contracts.ts</text>
    
    <rect x="930" y="125" width="170" height="30" rx="4" fill="#f0fdf4" stroke="#16a34a" stroke-width="1.5"/>
    <text x="1015" y="144" font-family="Arial, sans-serif" font-size="10" fill="#166534" text-anchor="middle">.env / .env.example</text>
    
    <rect x="1110" y="125" width="180" height="30" rx="4" fill="#f0fdf4" stroke="#16a34a" stroke-width="1.5"/>
    <text x="1200" y="144" font-family="Arial, sans-serif" font-size="10" fill="#166534" text-anchor="middle">vite.config.ts</text>
  </g>
  
  <!-- ==================== DATA FLOW ARROWS ==================== -->
  
  <!-- Frontend to Web3 -->
  <g>
    <path d="M 440 250 L 470 250 L 470 180 L 480 180" stroke="#3b82f6" stroke-width="2" fill="none" marker-end="url(#arrowBlue)"/>
    <text x="455" y="240" font-family="Arial, sans-serif" font-size="9" fill="#3b82f6" text-anchor="middle">Hooks</text>
  </g>
  
  <!-- Web3 to Blockchain -->
  <g>
    <path d="M 900 250 L 930 250 L 930 180 L 940 180" stroke="#8b5cf6" stroke-width="2" fill="none" marker-end="url(#arrowPurple)"/>
    <text x="915" y="240" font-family="Arial, sans-serif" font-size="9" fill="#8b5cf6" text-anchor="middle">viem</text>
  </g>
  
  <!-- Blockchain to External -->
  <g>
    <path d="M 1150 560 L 1150 610 L 670 610 L 670 680" stroke="#10b981" stroke-width="2" fill="none" marker-end="url(#arrowGreen)"/>
    <text x="900" y="600" font-family="Arial, sans-serif" font-size="9" fill="#10b981" text-anchor="middle">Oracle Data</text>
  </g>
  
  <!-- External to Frontend -->
  <g>
    <path d="M 150 630 L 150 610 L 250 610 L 250 560" stroke="#f59e0b" stroke-width="2" fill="none" marker-end="url(#arrowOrange)"/>
    <text x="180" y="600" font-family="Arial, sans-serif" font-size="9" fill="#f59e0b" text-anchor="middle">Metadata</text>
  </g>
  
  <!-- RPC to Blockchain -->
  <g>
    <path d="M 750 170 L 750 140 L 1100 140 L 1100 160" stroke="#06b6d4" stroke-width="2" fill="none" marker-end="url(#arrowCyan)"/>
    <text x="900" y="135" font-family="Arial, sans-serif" font-size="9" fill="#06b6d4" text-anchor="middle">JSON-RPC</text>
  </g>
  
  <!-- Legend -->
  <g transform="translate(500, 860)">
    <text x="170" y="0" font-family="Arial, sans-serif" font-size="12" font-weight="bold" fill="#1e293b" text-anchor="middle">Data Flow Legend</text>
    
    <line x1="20" y1="20" x2="60" y2="20" stroke="#3b82f6" stroke-width="2"/>
    <polygon points="60,15 60,25 70,20" fill="#3b82f6"/>
    <text x="75" y="24" font-family="Arial, sans-serif" font-size="10" fill="#64748b">User → Hooks</text>
    
    <line x1="180" y1="20" x2="220" y2="20" stroke="#8b5cf6" stroke-width="2"/>
    <polygon points="220,15 220,25 230,20" fill="#8b5cf6"/>
    <text x="235" y="24" font-family="Arial, sans-serif" font-size="10" fill="#64748b">Hooks → Contracts</text>
    
    <line x1="20" y1="45" x2="60" y2="45" stroke="#10b981" stroke-width="2"/>
    <polygon points="60,40 60,50 70,45" fill="#10b981"/>
    <text x="75" y="49" font-family="Arial, sans-serif" font-size="10" fill="#64748b">Oracle Data</text>
    
    <line x1="180" y1="45" x2="220" y2="45" stroke="#f59e0b" stroke-width="2"/>
    <polygon points="220,40 220,50 230,45" fill="#f59e0b"/>
    <text x="235" y="49" font-family="Arial, sans-serif" font-size="10" fill="#64748b">IPFS Metadata</text>
    
    <line x1="20" y1="70" x2="60" y2="70" stroke="#06b6d4" stroke-width="2"/>
    <polygon points="60,65 60,75 70,70" fill="#06b6d4"/>
    <text x="75" y="74" font-family="Arial, sans-serif" font-size="10" fill="#64748b">JSON-RPC</text>
  </g>
  
  <!-- ==================== SUMMARY BOX ==================== -->
  <g transform="translate(500, 940)">
    <rect x="0" y="0" width="340" height="100" rx="8" fill="#f8fafc" stroke="#e2e8f0" stroke-width="2"/>
    <text x="170" y="20" font-family="Arial, sans-serif" font-size="12" font-weight="bold" fill="#1e293b" text-anchor="middle">Technology Summary</text>
    
    <text x="20" y="42" font-family="Arial, sans-serif" font-size="9" fill="#334155">• Frontend: React 18, Vite, TypeScript</text>
    <text x="20" y="57" font-family="Arial, sans-serif" font-size="9" fill="#334155">• Web3: wagmi v2, viem, RainbowKit</text>
    <text x="20" y="72" font-family="Arial, sans-serif" font-size="9" fill="#334155">• UI: Tailwind CSS, Radix UI, Lucide</text>
    <text x="20" y="87" font-family="Arial, sans-serif" font-size="9" fill="#334155">• Network: Base Sepolia (84532)</text>
  </g>
  
  <!-- ==================== VERSION INFO ==================== -->
  <g transform="translate(880, 940)">
    <rect x="0" y="0" width="340" height="100" rx="8" fill="#f8fafc" stroke="#e2e8f0" stroke-width="2"/>
    <text x="170" y="20" font-family="Arial, sans-serif" font-size="12" font-weight="bold" fill="#1e293b" text-anchor="middle">Key Contract Addresses</text>
    
    <text x="20" y="42" font-family="monospace" font-size="8" fill="#334155">Diamond: 0x75ed83f1fd159050E1ed546C1A584ac2c9deE225</text>
    <text x="20" y="57" font-family="monospace" font-size="8" fill="#334155">ConditionalTokens: 0x3F84bEf67EA2B582a3d0a4f6f6B15776F12342c9</text>
    <text x="20" y="72" font-family="monospace" font-size="8" fill="#334155">mBTC: mock Bitcoin collateral</text>
    <text x="20" y="87" font-family="monospace" font-size="8" fill="#334155">mUSDC: mock USDC collateral</text>
  </g>
  
  <!-- Border around main content -->
  <rect x="10" y="90" width="1350" height="530" rx="8" fill="none" stroke="#cbd5e1" stroke-width="1" stroke-dasharray="8,4"/>
  
  <!-- Disclaimer -->
  <text x="700" y="1085" font-family="Arial, sans-serif" font-size="10" fill="#94a3b8" text-anchor="middle">Generated for Doefin DeFi Prediction Market | Base Sepolia Testnet Deployment</text>
</svg>